<svg width="353" height="78" viewBox="0 0 353 78" fill="none" xmlns="http://www.w3.org/2000/svg">
<rect y="76" width="353" height="2" fill="#700B97"/>
<path d="M0 28.4074C0 27.8551 0.447715 27.4074 1 27.4074V27.4074C1.55228 27.4074 2 27.8551 2 28.4074V73C2 73.5523 1.55228 74 1 74V74C0.447715 74 0 73.5523 0 73V28.4074Z" fill="#700B97"/>
<path d="M48 36.6296C48 36.0773 48.4477 35.6296 49 35.6296V35.6296C49.5523 35.6296 50 36.0773 50 36.6296V73C50 73.5523 49.5523 74 49 74V74C48.4477 74 48 73.5523 48 73V36.6296Z" fill="#700B97"/>
<path d="M168 28.4074C168 27.8551 168.448 27.4074 169 27.4074V27.4074C169.552 27.4074 170 27.8551 170 28.4074V73C170 73.5523 169.552 74 169 74V74C168.448 74 168 73.5523 168 73V28.4074Z" fill="#700B97"/>
<path d="M124 28.4074C124 27.8551 124.448 27.4074 125 27.4074V27.4074C125.552 27.4074 126 27.8551 126 28.4074V73C126 73.5523 125.552 74 125 74V74C124.448 74 124 73.5523 124 73V28.4074Z" fill="#700B97"/>
<path d="M20 28.4074C20 27.8551 20.4477 27.4074 21 27.4074V27.4074C21.5523 27.4074 22 27.8551 22 28.4074V73C22 73.5523 21.5523 74 21 74V74C20.4477 74 20 73.5523 20 73V28.4074Z" fill="#700B97"/>
<path d="M4 9.22222C4 8.66994 4.44772 8.22222 5 8.22222V8.22222C5.55228 8.22222 6 8.66994 6 9.22222V73C6 73.5523 5.55228 74 5 74V74C4.44772 74 4 73.5523 4 73V9.22222Z" fill="#700B97"/>
<path d="M52 20.1852C52 19.6329 52.4477 19.1852 53 19.1852V19.1852C53.5523 19.1852 54 19.6329 54 20.1852V73C54 73.5523 53.5523 74 53 74V74C52.4477 74 52 73.5523 52 73V20.1852Z" fill="#700B97"/>
<path d="M128 9.22222C128 8.66994 128.448 8.22222 129 8.22222V8.22222C129.552 8.22222 130 8.66994 130 9.22222V73C130 73.5523 129.552 74 129 74V74C128.448 74 128 73.5523 128 73V9.22222Z" fill="#700B97"/>
<path d="M24 33.8889C24 33.3366 24.4477 32.8889 25 32.8889V32.8889C25.5523 32.8889 26 33.3366 26 33.8889V73C26 73.5523 25.5523 74 25 74V74C24.4477 74 24 73.5523 24 73V33.8889Z" fill="#700B97"/>
<path d="M68 39.3704C68 38.8181 68.4477 38.3704 69 38.3704V38.3704C69.5523 38.3704 70 38.8181 70 39.3704V73C70 73.5523 69.5523 74 69 74V74C68.4477 74 68 73.5523 68 73V39.3704Z" fill="#700B97"/>
<path d="M144 33.8889C144 33.3366 144.448 32.8889 145 32.8889V32.8889C145.552 32.8889 146 33.3366 146 33.8889V73C146 73.5523 145.552 74 145 74V74C144.448 74 144 73.5523 144 73V33.8889Z" fill="#700B97"/>
<path d="M8 20.1852C8 19.6329 8.44772 19.1852 9 19.1852V19.1852C9.55228 19.1852 10 19.6329 10 20.1852V73C10 73.5523 9.55228 74 9 74V74C8.44772 74 8 73.5523 8 73V20.1852Z" fill="#700B97"/>
<path d="M56 25.6667C56 25.1144 56.4477 24.6667 57 24.6667V24.6667C57.5523 24.6667 58 25.1144 58 25.6667V73C58 73.5523 57.5523 74 57 74V74C56.4477 74 56 73.5523 56 73V25.6667Z" fill="#700B97"/>
<path d="M132 20.1852C132 19.6329 132.448 19.1852 133 19.1852V19.1852C133.552 19.1852 134 19.6329 134 20.1852V73C134 73.5523 133.552 74 133 74V74C132.448 74 132 73.5523 132 73V20.1852Z" fill="#700B97"/>
<path d="M28 20.1852C28 19.6329 28.4477 19.1852 29 19.1852V19.1852C29.5523 19.1852 30 19.6329 30 20.1852V73C30 73.5523 29.5523 74 29 74V74C28.4477 74 28 73.5523 28 73V20.1852Z" fill="#700B97"/>
<path d="M72 25.6667C72 25.1144 72.4477 24.6667 73 24.6667V24.6667C73.5523 24.6667 74 25.1144 74 25.6667V73C74 73.5523 73.5523 74 73 74V74C72.4477 74 72 73.5523 72 73V25.6667Z" fill="#700B97"/>
<path d="M148 20.1852C148 19.6329 148.448 19.1852 149 19.1852V19.1852C149.552 19.1852 150 19.6329 150 20.1852V73C150 73.5523 149.552 74 149 74V74C148.448 74 148 73.5523 148 73V20.1852Z" fill="#700B97"/>
<path d="M12 0.999999C12 0.447715 12.4477 0 13 0V0C13.5523 0 14 0.447715 14 1V73C14 73.5523 13.5523 74 13 74V74C12.4477 74 12 73.5523 12 73V0.999999Z" fill="#700B97"/>
<path d="M60 25.6667C60 25.1144 60.4477 24.6667 61 24.6667V24.6667C61.5523 24.6667 62 25.1144 62 25.6667V73C62 73.5523 61.5523 74 61 74V74C60.4477 74 60 73.5523 60 73V25.6667Z" fill="#700B97"/>
<path d="M136 0.999999C136 0.447715 136.448 0 137 0V0C137.552 0 138 0.447715 138 1V73C138 73.5523 137.552 74 137 74V74C136.448 74 136 73.5523 136 73V0.999999Z" fill="#700B97"/>
<path d="M32 0.999999C32 0.447715 32.4477 0 33 0V0C33.5523 0 34 0.447715 34 1V73C34 73.5523 33.5523 74 33 74V74C32.4477 74 32 73.5523 32 73V0.999999Z" fill="#700B97"/>
<path d="M76 11.963C76 11.4107 76.4477 10.963 77 10.963V10.963C77.5523 10.963 78 11.4107 78 11.963V73C78 73.5523 77.5523 74 77 74V74C76.4477 74 76 73.5523 76 73V11.963Z" fill="#700B97"/>
<path d="M152 0.999999C152 0.447715 152.448 0 153 0V0C153.552 0 154 0.447715 154 1V73C154 73.5523 153.552 74 153 74V74C152.448 74 152 73.5523 152 73V0.999999Z" fill="#700B97"/>
<path d="M16 11.963C16 11.4107 16.4477 10.963 17 10.963V10.963C17.5523 10.963 18 11.4107 18 11.963V73C18 73.5523 17.5523 74 17 74V74C16.4477 74 16 73.5523 16 73V11.963Z" fill="#700B97"/>
<path d="M64 33.8889C64 33.3366 64.4477 32.8889 65 32.8889V32.8889C65.5523 32.8889 66 33.3366 66 33.8889V73C66 73.5523 65.5523 74 65 74V74C64.4477 74 64 73.5523 64 73V33.8889Z" fill="#700B97"/>
<path d="M140 11.963C140 11.4107 140.448 10.963 141 10.963V10.963C141.552 10.963 142 11.4107 142 11.963V73C142 73.5523 141.552 74 141 74V74C140.448 74 140 73.5523 140 73V11.963Z" fill="#700B97"/>
<path d="M36 33.8889C36 33.3366 36.4477 32.8889 37 32.8889V32.8889C37.5523 32.8889 38 33.3366 38 33.8889V73C38 73.5523 37.5523 74 37 74V74C36.4477 74 36 73.5523 36 73V33.8889Z" fill="#700B97"/>
<path d="M156 33.8889C156 33.3366 156.448 32.8889 157 32.8889V32.8889C157.552 32.8889 158 33.3366 158 33.8889V73C158 73.5523 157.552 74 157 74V74C156.448 74 156 73.5523 156 73V33.8889Z" fill="#700B97"/>
<path d="M80 33.8889C80 33.3366 80.4477 32.8889 81 32.8889V32.8889C81.5523 32.8889 82 33.3366 82 33.8889V73C82 73.5523 81.5523 74 81 74V74C80.4477 74 80 73.5523 80 73V33.8889Z" fill="#700B97"/>
<path d="M92 50.3333C92 49.7811 92.4477 49.3333 93 49.3333V49.3333C93.5523 49.3333 94 49.7811 94 50.3333V73C94 73.5523 93.5523 74 93 74V74C92.4477 74 92 73.5523 92 73V50.3333Z" fill="#700B97"/>
<path d="M112 50.3333C112 49.7811 112.448 49.3333 113 49.3333V49.3333C113.552 49.3333 114 49.7811 114 50.3333V73C114 73.5523 113.552 74 113 74V74C112.448 74 112 73.5523 112 73V50.3333Z" fill="#700B97"/>
<path d="M40 42.1111C40 41.5588 40.4477 41.1111 41 41.1111V41.1111C41.5523 41.1111 42 41.5588 42 42.1111V73C42 73.5523 41.5523 74 41 74V74C40.4477 74 40 73.5523 40 73V42.1111Z" fill="#700B97"/>
<path d="M160 42.1111C160 41.5588 160.448 41.1111 161 41.1111V41.1111C161.552 41.1111 162 41.5588 162 42.1111V73C162 73.5523 161.552 74 161 74V74C160.448 74 160 73.5523 160 73V42.1111Z" fill="#700B97"/>
<path d="M84 42.1111C84 41.5588 84.4477 41.1111 85 41.1111V41.1111C85.5523 41.1111 86 41.5588 86 42.1111V73C86 73.5523 85.5523 74 85 74V74C84.4477 74 84 73.5523 84 73V42.1111Z" fill="#700B97"/>
<path d="M104 42.1111C104 41.5588 104.448 41.1111 105 41.1111V41.1111C105.552 41.1111 106 41.5588 106 42.1111V73C106 73.5523 105.552 74 105 74V74C104.448 74 104 73.5523 104 73V42.1111Z" fill="#700B97"/>
<path d="M96 42.1111C96 41.5588 96.4477 41.1111 97 41.1111V41.1111C97.5523 41.1111 98 41.5588 98 42.1111V73C98 73.5523 97.5523 74 97 74V74C96.4477 74 96 73.5523 96 73V42.1111Z" fill="#700B97"/>
<path d="M116 42.1111C116 41.5588 116.448 41.1111 117 41.1111V41.1111C117.552 41.1111 118 41.5588 118 42.1111V73C118 73.5523 117.552 74 117 74V74C116.448 74 116 73.5523 116 73V42.1111Z" fill="#700B97"/>
<path d="M44 53.0741C44 52.5218 44.4477 52.0741 45 52.0741V52.0741C45.5523 52.0741 46 52.5218 46 53.0741V73C46 73.5523 45.5523 74 45 74V74C44.4477 74 44 73.5523 44 73V53.0741Z" fill="#700B97"/>
<path d="M164 53.0741C164 52.5218 164.448 52.0741 165 52.0741V52.0741C165.552 52.0741 166 52.5218 166 53.0741V73C166 73.5523 165.552 74 165 74V74C164.448 74 164 73.5523 164 73V53.0741Z" fill="#700B97"/>
<path d="M88 53.0741C88 52.5218 88.4477 52.0741 89 52.0741V52.0741C89.5523 52.0741 90 52.5218 90 53.0741V73C90 73.5523 89.5523 74 89 74V74C88.4477 74 88 73.5523 88 73V53.0741Z" fill="#700B97"/>
<path d="M108 53.0741C108 52.5218 108.448 52.0741 109 52.0741V52.0741C109.552 52.0741 110 52.5218 110 53.0741V73C110 73.5523 109.552 74 109 74V74C108.448 74 108 73.5523 108 73V53.0741Z" fill="#700B97"/>
<path d="M100 53.0741C100 52.5218 100.448 52.0741 101 52.0741V52.0741C101.552 52.0741 102 52.5218 102 53.0741V73C102 73.5523 101.552 74 101 74V74C100.448 74 100 73.5523 100 73V53.0741Z" fill="#700B97"/>
<path d="M120 53.0741C120 52.5218 120.448 52.0741 121 52.0741V52.0741C121.552 52.0741 122 52.5218 122 53.0741V73C122 73.5523 121.552 74 121 74V74C120.448 74 120 73.5523 120 73V53.0741Z" fill="#700B97"/>
<path d="M172 28.4074C172 27.8551 172.448 27.4074 173 27.4074V27.4074C173.552 27.4074 174 27.8551 174 28.4074V73C174 73.5523 173.552 74 173 74V74C172.448 74 172 73.5523 172 73V28.4074Z" fill="#BBBBBB"/>
<path d="M220 36.6296C220 36.0773 220.448 35.6296 221 35.6296V35.6296C221.552 35.6296 222 36.0773 222 36.6296V73C222 73.5523 221.552 74 221 74V74C220.448 74 220 73.5523 220 73V36.6296Z" fill="#BBBBBB"/>
<path d="M340 28.4074C340 27.8551 340.448 27.4074 341 27.4074V27.4074C341.552 27.4074 342 27.8551 342 28.4074V73C342 73.5523 341.552 74 341 74V74C340.448 74 340 73.5523 340 73V28.4074Z" fill="#BBBBBB"/>
<path d="M296 28.4074C296 27.8551 296.448 27.4074 297 27.4074V27.4074C297.552 27.4074 298 27.8551 298 28.4074V73C298 73.5523 297.552 74 297 74V74C296.448 74 296 73.5523 296 73V28.4074Z" fill="#BBBBBB"/>
<path d="M192 28.4074C192 27.8551 192.448 27.4074 193 27.4074V27.4074C193.552 27.4074 194 27.8551 194 28.4074V73C194 73.5523 193.552 74 193 74V74C192.448 74 192 73.5523 192 73V28.4074Z" fill="#BBBBBB"/>
<path d="M176 9.22222C176 8.66994 176.448 8.22222 177 8.22222V8.22222C177.552 8.22222 178 8.66994 178 9.22222V73C178 73.5523 177.552 74 177 74V74C176.448 74 176 73.5523 176 73V9.22222Z" fill="#BBBBBB"/>
<path d="M224 20.1852C224 19.6329 224.448 19.1852 225 19.1852V19.1852C225.552 19.1852 226 19.6329 226 20.1852V73C226 73.5523 225.552 74 225 74V74C224.448 74 224 73.5523 224 73V20.1852Z" fill="#BBBBBB"/>
<path d="M300 9.22222C300 8.66994 300.448 8.22222 301 8.22222V8.22222C301.552 8.22222 302 8.66994 302 9.22222V73C302 73.5523 301.552 74 301 74V74C300.448 74 300 73.5523 300 73V9.22222Z" fill="#BBBBBB"/>
<path d="M196 33.8889C196 33.3366 196.448 32.8889 197 32.8889V32.8889C197.552 32.8889 198 33.3366 198 33.8889V73C198 73.5523 197.552 74 197 74V74C196.448 74 196 73.5523 196 73V33.8889Z" fill="#BBBBBB"/>
<path d="M240 39.3704C240 38.8181 240.448 38.3704 241 38.3704V38.3704C241.552 38.3704 242 38.8181 242 39.3704V73C242 73.5523 241.552 74 241 74V74C240.448 74 240 73.5523 240 73V39.3704Z" fill="#BBBBBB"/>
<path d="M316 33.8889C316 33.3366 316.448 32.8889 317 32.8889V32.8889C317.552 32.8889 318 33.3366 318 33.8889V73C318 73.5523 317.552 74 317 74V74C316.448 74 316 73.5523 316 73V33.8889Z" fill="#BBBBBB"/>
<path d="M180 20.1852C180 19.6329 180.448 19.1852 181 19.1852V19.1852C181.552 19.1852 182 19.6329 182 20.1852V73C182 73.5523 181.552 74 181 74V74C180.448 74 180 73.5523 180 73V20.1852Z" fill="#BBBBBB"/>
<path d="M228 25.6667C228 25.1144 228.448 24.6667 229 24.6667V24.6667C229.552 24.6667 230 25.1144 230 25.6667V73C230 73.5523 229.552 74 229 74V74C228.448 74 228 73.5523 228 73V25.6667Z" fill="#BBBBBB"/>
<path d="M304 20.1852C304 19.6329 304.448 19.1852 305 19.1852V19.1852C305.552 19.1852 306 19.6329 306 20.1852V73C306 73.5523 305.552 74 305 74V74C304.448 74 304 73.5523 304 73V20.1852Z" fill="#BBBBBB"/>
<path d="M200 20.1852C200 19.6329 200.448 19.1852 201 19.1852V19.1852C201.552 19.1852 202 19.6329 202 20.1852V73C202 73.5523 201.552 74 201 74V74C200.448 74 200 73.5523 200 73V20.1852Z" fill="#BBBBBB"/>
<path d="M244 25.6667C244 25.1144 244.448 24.6667 245 24.6667V24.6667C245.552 24.6667 246 25.1144 246 25.6667V73C246 73.5523 245.552 74 245 74V74C244.448 74 244 73.5523 244 73V25.6667Z" fill="#BBBBBB"/>
<path d="M320 20.1852C320 19.6329 320.448 19.1852 321 19.1852V19.1852C321.552 19.1852 322 19.6329 322 20.1852V73C322 73.5523 321.552 74 321 74V74C320.448 74 320 73.5523 320 73V20.1852Z" fill="#BBBBBB"/>
<path d="M184 0.999999C184 0.447715 184.448 0 185 0V0C185.552 0 186 0.447715 186 1V73C186 73.5523 185.552 74 185 74V74C184.448 74 184 73.5523 184 73V0.999999Z" fill="#BBBBBB"/>
<path d="M232 25.6667C232 25.1144 232.448 24.6667 233 24.6667V24.6667C233.552 24.6667 234 25.1144 234 25.6667V73C234 73.5523 233.552 74 233 74V74C232.448 74 232 73.5523 232 73V25.6667Z" fill="#BBBBBB"/>
<path d="M308 0.999999C308 0.447715 308.448 0 309 0V0C309.552 0 310 0.447715 310 1V73C310 73.5523 309.552 74 309 74V74C308.448 74 308 73.5523 308 73V0.999999Z" fill="#BBBBBB"/>
<path d="M204 0.999999C204 0.447715 204.448 0 205 0V0C205.552 0 206 0.447715 206 1V73C206 73.5523 205.552 74 205 74V74C204.448 74 204 73.5523 204 73V0.999999Z" fill="#BBBBBB"/>
<path d="M248 11.963C248 11.4107 248.448 10.963 249 10.963V10.963C249.552 10.963 250 11.4107 250 11.963V73C250 73.5523 249.552 74 249 74V74C248.448 74 248 73.5523 248 73V11.963Z" fill="#BBBBBB"/>
<path d="M324 0.999999C324 0.447715 324.448 0 325 0V0C325.552 0 326 0.447715 326 1V73C326 73.5523 325.552 74 325 74V74C324.448 74 324 73.5523 324 73V0.999999Z" fill="#BBBBBB"/>
<path d="M188 11.963C188 11.4107 188.448 10.963 189 10.963V10.963C189.552 10.963 190 11.4107 190 11.963V73C190 73.5523 189.552 74 189 74V74C188.448 74 188 73.5523 188 73V11.963Z" fill="#BBBBBB"/>
<path d="M236 33.8889C236 33.3366 236.448 32.8889 237 32.8889V32.8889C237.552 32.8889 238 33.3366 238 33.8889V73C238 73.5523 237.552 74 237 74V74C236.448 74 236 73.5523 236 73V33.8889Z" fill="#BBBBBB"/>
<path d="M312 11.963C312 11.4107 312.448 10.963 313 10.963V10.963C313.552 10.963 314 11.4107 314 11.963V73C314 73.5523 313.552 74 313 74V74C312.448 74 312 73.5523 312 73V11.963Z" fill="#BBBBBB"/>
<path d="M208 33.8889C208 33.3366 208.448 32.8889 209 32.8889V32.8889C209.552 32.8889 210 33.3366 210 33.8889V73C210 73.5523 209.552 74 209 74V74C208.448 74 208 73.5523 208 73V33.8889Z" fill="#BBBBBB"/>
<path d="M328 33.8889C328 33.3366 328.448 32.8889 329 32.8889V32.8889C329.552 32.8889 330 33.3366 330 33.8889V73C330 73.5523 329.552 74 329 74V74C328.448 74 328 73.5523 328 73V33.8889Z" fill="#BBBBBB"/>
<path d="M252 33.8889C252 33.3366 252.448 32.8889 253 32.8889V32.8889C253.552 32.8889 254 33.3366 254 33.8889V73C254 73.5523 253.552 74 253 74V74C252.448 74 252 73.5523 252 73V33.8889Z" fill="#BBBBBB"/>
<path d="M264 50.3333C264 49.781 264.448 49.3333 265 49.3333V49.3333C265.552 49.3333 266 49.781 266 50.3333V73C266 73.5523 265.552 74 265 74V74C264.448 74 264 73.5523 264 73V50.3333Z" fill="#BBBBBB"/>
<path d="M284 50.3333C284 49.781 284.448 49.3333 285 49.3333V49.3333C285.552 49.3333 286 49.781 286 50.3333V73C286 73.5523 285.552 74 285 74V74C284.448 74 284 73.5523 284 73V50.3333Z" fill="#BBBBBB"/>
<path d="M212 42.1111C212 41.5588 212.448 41.1111 213 41.1111V41.1111C213.552 41.1111 214 41.5588 214 42.1111V73C214 73.5523 213.552 74 213 74V74C212.448 74 212 73.5523 212 73V42.1111Z" fill="#BBBBBB"/>
<path d="M332 42.1111C332 41.5588 332.448 41.1111 333 41.1111V41.1111C333.552 41.1111 334 41.5588 334 42.1111V73C334 73.5523 333.552 74 333 74V74C332.448 74 332 73.5523 332 73V42.1111Z" fill="#BBBBBB"/>
<path d="M256 42.1111C256 41.5588 256.448 41.1111 257 41.1111V41.1111C257.552 41.1111 258 41.5588 258 42.1111V73C258 73.5523 257.552 74 257 74V74C256.448 74 256 73.5523 256 73V42.1111Z" fill="#BBBBBB"/>
<path d="M276 42.1111C276 41.5588 276.448 41.1111 277 41.1111V41.1111C277.552 41.1111 278 41.5588 278 42.1111V73C278 73.5523 277.552 74 277 74V74C276.448 74 276 73.5523 276 73V42.1111Z" fill="#BBBBBB"/>
<path d="M268 42.1111C268 41.5588 268.448 41.1111 269 41.1111V41.1111C269.552 41.1111 270 41.5588 270 42.1111V73C270 73.5523 269.552 74 269 74V74C268.448 74 268 73.5523 268 73V42.1111Z" fill="#BBBBBB"/>
<path d="M288 42.1111C288 41.5588 288.448 41.1111 289 41.1111V41.1111C289.552 41.1111 290 41.5588 290 42.1111V73C290 73.5523 289.552 74 289 74V74C288.448 74 288 73.5523 288 73V42.1111Z" fill="#BBBBBB"/>
<path d="M216 53.0741C216 52.5218 216.448 52.0741 217 52.0741V52.0741C217.552 52.0741 218 52.5218 218 53.0741V73C218 73.5523 217.552 74 217 74V74C216.448 74 216 73.5523 216 73V53.0741Z" fill="#BBBBBB"/>
<path d="M336 53.0741C336 52.5218 336.448 52.0741 337 52.0741V52.0741C337.552 52.0741 338 52.5218 338 53.0741V73C338 73.5523 337.552 74 337 74V74C336.448 74 336 73.5523 336 73V53.0741Z" fill="#BBBBBB"/>
<path d="M260 53.0741C260 52.5218 260.448 52.0741 261 52.0741V52.0741C261.552 52.0741 262 52.5218 262 53.0741V73C262 73.5523 261.552 74 261 74V74C260.448 74 260 73.5523 260 73V53.0741Z" fill="#BBBBBB"/>
<path d="M280 53.0741C280 52.5218 280.448 52.0741 281 52.0741V52.0741C281.552 52.0741 282 52.5218 282 53.0741V73C282 73.5523 281.552 74 281 74V74C280.448 74 280 73.5523 280 73V53.0741Z" fill="#BBBBBB"/>
<path d="M272 53.0741C272 52.5218 272.448 52.0741 273 52.0741V52.0741C273.552 52.0741 274 52.5218 274 53.0741V73C274 73.5523 273.552 74 273 74V74C272.448 74 272 73.5523 272 73V53.0741Z" fill="#BBBBBB"/>
<path d="M292 53.0741C292 52.5218 292.448 52.0741 293 52.0741V52.0741C293.552 52.0741 294 52.5218 294 53.0741V73C294 73.5523 293.552 74 293 74V74C292.448 74 292 73.5523 292 73V53.0741Z" fill="#BBBBBB"/>
<path d="M0 66C0 63.7909 1.79086 62 4 62H31C33.2091 62 35 63.7909 35 66V78H0V66Z" fill="#700B97"/>
<path d="M11.276 66.272H7.064V69.008C7.248 68.752 7.52 68.544 7.88 68.384C8.24 68.216 8.628 68.132 9.044 68.132C9.708 68.132 10.248 68.272 10.664 68.552C11.08 68.824 11.376 69.18 11.552 69.62C11.736 70.052 11.828 70.512 11.828 71C11.828 71.576 11.72 72.092 11.504 72.548C11.288 73.004 10.956 73.364 10.508 73.628C10.068 73.892 9.52 74.024 8.864 74.024C8.024 74.024 7.344 73.808 6.824 73.376C6.304 72.944 5.988 72.368 5.876 71.648H6.944C7.048 72.104 7.268 72.46 7.604 72.716C7.94 72.972 8.364 73.1 8.876 73.1C9.508 73.1 9.984 72.912 10.304 72.536C10.624 72.152 10.784 71.648 10.784 71.024C10.784 70.4 10.624 69.92 10.304 69.584C9.984 69.24 9.512 69.068 8.888 69.068C8.464 69.068 8.092 69.172 7.772 69.38C7.46 69.58 7.232 69.856 7.088 70.208H6.056V65.312H11.276V66.272ZM13.8072 74.072C13.5992 74.072 13.4232 74 13.2792 73.856C13.1352 73.712 13.0632 73.536 13.0632 73.328C13.0632 73.12 13.1352 72.944 13.2792 72.8C13.4232 72.656 13.5992 72.584 13.8072 72.584C14.0072 72.584 14.1752 72.656 14.3112 72.8C14.4552 72.944 14.5272 73.12 14.5272 73.328C14.5272 73.536 14.4552 73.712 14.3112 73.856C14.1752 74 14.0072 74.072 13.8072 74.072ZM13.8072 68.936C13.5992 68.936 13.4232 68.864 13.2792 68.72C13.1352 68.576 13.0632 68.4 13.0632 68.192C13.0632 67.984 13.1352 67.808 13.2792 67.664C13.4232 67.52 13.5992 67.448 13.8072 67.448C14.0072 67.448 14.1752 67.52 14.3112 67.664C14.4552 67.808 14.5272 67.984 14.5272 68.192C14.5272 68.4 14.4552 68.576 14.3112 68.72C14.1752 68.864 14.0072 68.936 13.8072 68.936ZM15.5698 72.068V71.24L19.7818 65.408H21.0898V71.12H22.2898V72.068H21.0898V74H20.0098V72.068H15.5698ZM20.0578 66.548L16.8298 71.12H20.0578V66.548ZM28.7207 66.176L25.3847 74H24.2807L27.6647 66.284H23.0327V65.348H28.7207V66.176Z" fill="white"/>
<path d="M318 66C318 63.7909 319.791 62 322 62H349C351.209 62 353 63.7909 353 66V78H318V66Z" fill="#700B97"/>
<path d="M323.456 66.32V65.324H325.712V74H324.608V66.32H323.456ZM327.3 66.32V65.324H329.556V74H328.452V66.32H327.3ZM331.96 74.072C331.752 74.072 331.576 74 331.432 73.856C331.288 73.712 331.216 73.536 331.216 73.328C331.216 73.12 331.288 72.944 331.432 72.8C331.576 72.656 331.752 72.584 331.96 72.584C332.16 72.584 332.328 72.656 332.464 72.8C332.608 72.944 332.68 73.12 332.68 73.328C332.68 73.536 332.608 73.712 332.464 73.856C332.328 74 332.16 74.072 331.96 74.072ZM331.96 68.936C331.752 68.936 331.576 68.864 331.432 68.72C331.288 68.576 331.216 68.4 331.216 68.192C331.216 67.984 331.288 67.808 331.432 67.664C331.576 67.52 331.752 67.448 331.96 67.448C332.16 67.448 332.328 67.52 332.464 67.664C332.608 67.808 332.68 67.984 332.68 68.192C332.68 68.4 332.608 68.576 332.464 68.72C332.328 68.864 332.16 68.936 331.96 68.936ZM333.854 73.124C334.87 72.308 335.666 71.64 336.242 71.12C336.818 70.592 337.302 70.044 337.694 69.476C338.094 68.9 338.294 68.336 338.294 67.784C338.294 67.264 338.166 66.856 337.91 66.56C337.662 66.256 337.258 66.104 336.698 66.104C336.154 66.104 335.73 66.276 335.426 66.62C335.13 66.956 334.97 67.408 334.946 67.976H333.89C333.922 67.08 334.194 66.388 334.706 65.9C335.218 65.412 335.878 65.168 336.686 65.168C337.51 65.168 338.162 65.396 338.642 65.852C339.13 66.308 339.374 66.936 339.374 67.736C339.374 68.4 339.174 69.048 338.774 69.68C338.382 70.304 337.934 70.856 337.43 71.336C336.926 71.808 336.282 72.36 335.498 72.992H339.626V73.904H333.854V73.124ZM340.889 69.572C340.889 68.196 341.113 67.124 341.561 66.356C342.009 65.58 342.793 65.192 343.913 65.192C345.025 65.192 345.805 65.58 346.253 66.356C346.701 67.124 346.925 68.196 346.925 69.572C346.925 70.972 346.701 72.06 346.253 72.836C345.805 73.612 345.025 74 343.913 74C342.793 74 342.009 73.612 341.561 72.836C341.113 72.06 340.889 70.972 340.889 69.572ZM345.845 69.572C345.845 68.876 345.797 68.288 345.701 67.808C345.613 67.32 345.425 66.928 345.137 66.632C344.857 66.336 344.449 66.188 343.913 66.188C343.369 66.188 342.953 66.336 342.665 66.632C342.385 66.928 342.197 67.32 342.101 67.808C342.013 68.288 341.969 68.876 341.969 69.572C341.969 70.292 342.013 70.896 342.101 71.384C342.197 71.872 342.385 72.264 342.665 72.56C342.953 72.856 343.369 73.004 343.913 73.004C344.449 73.004 344.857 72.856 345.137 72.56C345.425 72.264 345.613 71.872 345.701 71.384C345.797 70.896 345.845 70.292 345.845 69.572Z" fill="white"/>
</svg>
