<svg width="64" height="48" viewBox="0 0 64 48" fill="none" xmlns="http://www.w3.org/2000/svg">
<path d="M54.7571 0.601033C54.2687 0.705815 53.833 0.980113 53.5273 1.37538C53.2216 1.77065 53.0654 2.2614 53.0865 2.76079V45.1089C53.0369 45.4119 53.0538 45.7221 53.1359 46.0179C53.218 46.3137 53.3634 46.5881 53.562 46.8221C53.7607 47.0561 54.0078 47.2441 54.2863 47.373C54.5648 47.5019 54.8679 47.5687 55.1748 47.5687C55.4816 47.5687 55.7848 47.5019 56.0632 47.373C56.3417 47.2441 56.5888 47.0561 56.7875 46.8221C56.9861 46.5881 57.1315 46.3137 57.2136 46.0179C57.2957 45.7221 57.3126 45.4119 57.263 45.1089V2.76079C57.27 2.46312 57.2143 2.1673 57.0993 1.89265C56.9844 1.618 56.8129 1.37069 56.596 1.16688C56.379 0.963063 56.1216 0.80732 55.8404 0.709819C55.5593 0.612317 55.2607 0.575248 54.9643 0.601033C54.8952 0.597649 54.8261 0.597649 54.7571 0.601033ZM8.97468 2.53408C8.48627 2.63887 8.05066 2.91316 7.74492 3.30843C7.43919 3.7037 7.28305 4.19445 7.30414 4.69384V42.5843C7.25453 42.8873 7.27136 43.1975 7.35346 43.4933C7.43557 43.7891 7.58099 44.0636 7.77963 44.2975C7.97828 44.5315 8.2254 44.7195 8.50387 44.8484C8.78234 44.9773 9.08549 45.0441 9.39231 45.0441C9.69914 45.0441 10.0023 44.9773 10.2808 44.8484C10.5592 44.7195 10.8064 44.5315 11.005 44.2975C11.2036 44.0636 11.3491 43.7891 11.4312 43.4933C11.5133 43.1975 11.5301 42.8873 11.4805 42.5843V4.69384C11.4876 4.39617 11.4318 4.10035 11.3169 3.8257C11.2019 3.55105 11.0304 3.30374 10.8135 3.09993C10.5966 2.89611 10.3391 2.74037 10.058 2.64287C9.77681 2.54537 9.47827 2.5083 9.18182 2.53408C9.11282 2.5307 9.04369 2.5307 8.97468 2.53408ZM48.0749 9.51643C47.5865 9.62121 47.1509 9.89551 46.8451 10.2908C46.5394 10.686 46.3833 11.1768 46.4044 11.6762V36.1935C46.3537 36.4969 46.3697 36.8077 46.4512 37.1043C46.5327 37.4009 46.6779 37.6761 46.8765 37.9109C47.0752 38.1456 47.3225 38.3343 47.6014 38.4636C47.8803 38.593 48.184 38.66 48.4914 38.66C48.7988 38.66 49.1025 38.593 49.3814 38.4636C49.6603 38.3343 49.9077 38.1456 50.1063 37.9109C50.3049 37.6761 50.4501 37.4009 50.5316 37.1043C50.6132 36.8077 50.6292 36.4969 50.5785 36.1935V11.6762C50.5855 11.3789 50.5298 11.0835 50.4152 10.8092C50.3005 10.5349 50.1294 10.2878 49.913 10.0841C49.6965 9.88032 49.4396 9.72447 49.159 9.62667C48.8784 9.52887 48.5804 9.49131 48.2843 9.51643C48.2138 9.5129 48.1432 9.5129 48.0727 9.51643H48.0749ZM2.29251 11.4495C1.80411 11.5543 1.36849 11.8286 1.06276 12.2238C0.757023 12.6191 0.600884 13.1099 0.621974 13.6093V33.6689C0.571294 33.9723 0.587281 34.2831 0.668824 34.5797C0.750368 34.8763 0.895508 35.1515 1.09415 35.3863C1.29279 35.621 1.54016 35.8097 1.81904 35.939C2.09793 36.0684 2.40164 36.1354 2.70904 36.1354C3.01643 36.1354 3.32014 36.0684 3.59903 35.939C3.87792 35.8097 4.12529 35.621 4.32393 35.3863C4.52256 35.1515 4.6677 34.8763 4.74925 34.5797C4.83079 34.2831 4.84678 33.9723 4.7961 33.6689V13.6093C4.8031 13.312 4.74746 13.0166 4.6328 12.7423C4.51813 12.468 4.34701 12.2209 4.13059 12.0171C3.91416 11.8134 3.65727 11.6575 3.37665 11.5597C3.09604 11.4619 2.79798 11.4244 2.50189 11.4495C2.4314 11.446 2.36078 11.446 2.29029 11.4495H2.29251ZM15.6568 13.6783C15.1684 13.7831 14.7328 14.0574 14.4271 14.4527C14.1213 14.8479 13.9652 15.3387 13.9863 15.8381V31.4401C13.9356 31.7435 13.9516 32.0543 14.0332 32.3509C14.1147 32.6474 14.2598 32.9227 14.4585 33.1574C14.6571 33.3922 14.9045 33.5808 15.1834 33.7102C15.4623 33.8396 15.766 33.9066 16.0734 33.9066C16.3808 33.9066 16.6845 33.8396 16.9634 33.7102C17.2422 33.5808 17.4896 33.3922 17.6883 33.1574C17.8869 32.9227 18.032 32.6474 18.1136 32.3509C18.1951 32.0543 18.2111 31.7435 18.1604 31.4401V15.8381C18.1674 15.5408 18.1118 15.2454 17.9971 14.9711C17.8825 14.6968 17.7113 14.4497 17.4949 14.2459C17.2785 14.0422 17.0216 13.8864 16.741 13.7886C16.4604 13.6908 16.1623 13.6532 15.8662 13.6783C15.7957 13.6748 15.7251 13.6748 15.6546 13.6783H15.6568ZM61.4393 13.9741C60.9509 14.0789 60.5153 14.3532 60.2096 14.7485C59.9038 15.1437 59.7477 15.6345 59.7688 16.1339V31.7358C59.7192 32.0388 59.736 32.349 59.8181 32.6448C59.9002 32.9406 60.0456 33.2151 60.2443 33.449C60.4429 33.683 60.6901 33.871 60.9685 33.9999C61.247 34.1288 61.5502 34.1956 61.857 34.1956C62.1638 34.1956 62.467 34.1288 62.7454 33.9999C63.0239 33.871 63.271 33.683 63.4697 33.449C63.6683 33.2151 63.8137 32.9406 63.8958 32.6448C63.9779 32.349 63.9948 32.0388 63.9451 31.7358V16.1339C63.9522 15.8362 63.8965 15.5404 63.7815 15.2657C63.6666 14.9911 63.4951 14.7438 63.2782 14.54C63.0612 14.3362 62.8038 14.1804 62.5226 14.0829C62.2415 13.9854 61.9429 13.9483 61.6465 13.9741C61.5775 13.9707 61.5083 13.9707 61.4393 13.9741Z" fill="#700B97"/>
<path d="M41.8634 18.5656C41.8634 23.8778 37.5608 30.5842 32.2486 30.5842C26.9363 30.5842 22.6337 23.8778 22.6337 18.5656C23.7532 20.0582 25.2048 21.2697 26.8737 22.1042C28.5425 22.9386 30.3827 23.373 32.2486 23.373C34.1144 23.373 35.9546 22.9386 37.6234 22.1042C39.2923 21.2697 40.7439 20.0582 41.8634 18.5656Z" fill="#700B97"/>
<path d="M41.8634 11.3544V20.9693C41.8634 23.5193 40.8505 25.9649 39.0473 27.768C37.2442 29.5712 34.7986 30.5841 32.2486 30.5841C29.6985 30.5841 27.2529 29.5712 25.4498 27.768C23.6467 25.9649 22.6337 23.5193 22.6337 20.9693V11.3544C22.6337 8.80433 23.6467 6.35875 25.4498 4.55561C27.2529 2.75247 29.6985 1.73947 32.2486 1.73947C34.7986 1.73947 37.2442 2.75247 39.0473 4.55561C40.8505 6.35875 41.8634 8.80433 41.8634 11.3544V11.3544Z" stroke="white" stroke-width="3.29653" stroke-linecap="round" stroke-linejoin="round"/>
<path d="M43.3745 29.554C43.3745 29.554 38.1063 34.9109 32.2487 34.9109M21.5349 29.554C21.5349 29.554 26.3911 34.9109 32.2487 34.9109M32.2487 34.9109V45.0065" stroke="white" stroke-width="3.29653" stroke-linecap="round" stroke-linejoin="round"/>
</svg>
