<svg width="198" height="61" viewBox="0 0 198 61" fill="none" xmlns="http://www.w3.org/2000/svg">
<path d="M60.7571 6.60103C60.2687 6.70582 59.833 6.98011 59.5273 7.37538C59.2216 7.77065 59.0654 8.2614 59.0865 8.76079V51.1089C59.0369 51.4119 59.0538 51.7221 59.1359 52.0179C59.218 52.3137 59.3634 52.5881 59.562 52.8221C59.7607 53.0561 60.0078 53.2441 60.2863 53.373C60.5648 53.5019 60.8679 53.5687 61.1748 53.5687C61.4816 53.5687 61.7848 53.5019 62.0632 53.373C62.3417 53.2441 62.5888 53.0561 62.7875 52.8221C62.9861 52.5881 63.1315 52.3137 63.2136 52.0179C63.2957 51.7221 63.3126 51.4119 63.263 51.1089V8.76079C63.27 8.46312 63.2143 8.1673 63.0993 7.89265C62.9844 7.618 62.8129 7.37069 62.596 7.16688C62.379 6.96306 62.1216 6.80732 61.8404 6.70982C61.5593 6.61232 61.2607 6.57525 60.9643 6.60103C60.8952 6.59765 60.8261 6.59765 60.7571 6.60103ZM14.9747 8.53408C14.4863 8.63887 14.0507 8.91316 13.7449 9.30843C13.4392 9.7037 13.283 10.1945 13.3041 10.6938V48.5843C13.2545 48.8873 13.2714 49.1975 13.3535 49.4933C13.4356 49.7891 13.581 50.0636 13.7796 50.2975C13.9783 50.5315 14.2254 50.7195 14.5039 50.8484C14.7823 50.9773 15.0855 51.0441 15.3923 51.0441C15.6991 51.0441 16.0023 50.9773 16.2808 50.8484C16.5592 50.7195 16.8064 50.5315 17.005 50.2975C17.2036 50.0636 17.3491 49.7891 17.4312 49.4933C17.5133 49.1975 17.5301 48.8873 17.4805 48.5843V10.6938C17.4876 10.3962 17.4318 10.1003 17.3169 9.8257C17.2019 9.55105 17.0304 9.30374 16.8135 9.09993C16.5966 8.89611 16.3391 8.74037 16.058 8.64287C15.7768 8.54537 15.4783 8.5083 15.1818 8.53408C15.1128 8.5307 15.0437 8.5307 14.9747 8.53408ZM54.0749 15.5164C53.5865 15.6212 53.1509 15.8955 52.8451 16.2908C52.5394 16.686 52.3833 17.1768 52.4044 17.6762V42.1935C52.3537 42.4969 52.3697 42.8077 52.4512 43.1043C52.5327 43.4009 52.6779 43.6761 52.8765 43.9109C53.0752 44.1456 53.3225 44.3343 53.6014 44.4636C53.8803 44.593 54.184 44.66 54.4914 44.66C54.7988 44.66 55.1025 44.593 55.3814 44.4636C55.6603 44.3343 55.9077 44.1456 56.1063 43.9109C56.3049 43.6761 56.4501 43.4009 56.5316 43.1043C56.6132 42.8077 56.6292 42.4969 56.5785 42.1935V17.6762C56.5855 17.3789 56.5298 17.0835 56.4152 16.8092C56.3005 16.5349 56.1294 16.2878 55.913 16.0841C55.6965 15.8803 55.4396 15.7245 55.159 15.6267C54.8784 15.5289 54.5804 15.4913 54.2843 15.5164C54.2138 15.5129 54.1432 15.5129 54.0727 15.5164H54.0749ZM8.29251 17.4495C7.80411 17.5543 7.36849 17.8286 7.06276 18.2238C6.75702 18.6191 6.60088 19.1099 6.62197 19.6093V39.6689C6.57129 39.9723 6.58728 40.2831 6.66882 40.5797C6.75037 40.8763 6.89551 41.1515 7.09415 41.3863C7.29279 41.621 7.54016 41.8097 7.81904 41.939C8.09793 42.0684 8.40164 42.1354 8.70904 42.1354C9.01643 42.1354 9.32014 42.0684 9.59903 41.939C9.87792 41.8097 10.1253 41.621 10.3239 41.3863C10.5226 41.1515 10.6677 40.8763 10.7492 40.5797C10.8308 40.2831 10.8468 39.9723 10.7961 39.6689V19.6093C10.8031 19.312 10.7475 19.0166 10.6328 18.7423C10.5181 18.468 10.347 18.2209 10.1306 18.0171C9.91416 17.8134 9.65727 17.6575 9.37665 17.5597C9.09604 17.4619 8.79798 17.4244 8.50189 17.4495C8.4314 17.446 8.36078 17.446 8.29029 17.4495H8.29251ZM21.6568 19.6783C21.1684 19.7831 20.7328 20.0574 20.4271 20.4527C20.1213 20.8479 19.9652 21.3387 19.9863 21.8381V37.4401C19.9356 37.7435 19.9516 38.0543 20.0332 38.3509C20.1147 38.6474 20.2598 38.9227 20.4585 39.1574C20.6571 39.3922 20.9045 39.5808 21.1834 39.7102C21.4623 39.8396 21.766 39.9066 22.0734 39.9066C22.3808 39.9066 22.6845 39.8396 22.9634 39.7102C23.2422 39.5808 23.4896 39.3922 23.6883 39.1574C23.8869 38.9227 24.032 38.6474 24.1136 38.3509C24.1951 38.0543 24.2111 37.7435 24.1604 37.4401V21.8381C24.1674 21.5408 24.1118 21.2454 23.9971 20.9711C23.8825 20.6968 23.7113 20.4497 23.4949 20.2459C23.2785 20.0422 23.0216 19.8864 22.741 19.7886C22.4604 19.6908 22.1623 19.6532 21.8662 19.6783C21.7957 19.6748 21.7251 19.6748 21.6546 19.6783H21.6568ZM67.4393 19.9741C66.9509 20.0789 66.5153 20.3532 66.2096 20.7485C65.9038 21.1437 65.7477 21.6345 65.7688 22.1339V37.7358C65.7192 38.0388 65.736 38.349 65.8181 38.6448C65.9002 38.9406 66.0456 39.2151 66.2443 39.449C66.4429 39.683 66.6901 39.871 66.9685 39.9999C67.247 40.1288 67.5502 40.1956 67.857 40.1956C68.1638 40.1956 68.467 40.1288 68.7454 39.9999C69.0239 39.871 69.271 39.683 69.4697 39.449C69.6683 39.2151 69.8137 38.9406 69.8958 38.6448C69.9779 38.349 69.9948 38.0388 69.9451 37.7358V22.1339C69.9522 21.8362 69.8965 21.5404 69.7815 21.2657C69.6666 20.9911 69.4951 20.7438 69.2782 20.54C69.0612 20.3362 68.8038 20.1804 68.5226 20.0829C68.2415 19.9854 67.9429 19.9483 67.6465 19.9741C67.5775 19.9707 67.5083 19.9707 67.4393 19.9741Z" fill="#700B97"/>
<path d="M47.8634 23.5656C47.8634 28.8778 43.5608 35.5842 38.2486 35.5842C32.9363 35.5842 28.6337 28.8778 28.6337 23.5656C29.7532 25.0582 31.2048 26.2697 32.8737 27.1042C34.5425 27.9386 36.3827 28.373 38.2486 28.373C40.1144 28.373 41.9546 27.9386 43.6234 27.1042C45.2923 26.2697 46.7439 25.0582 47.8634 23.5656Z" fill="#700B97"/>
<path d="M47.8634 16.3544V25.9693C47.8634 28.5193 46.8505 30.9649 45.0473 32.768C43.2442 34.5712 40.7986 35.5841 38.2486 35.5841C35.6985 35.5841 33.2529 34.5712 31.4498 32.768C29.6467 30.9649 28.6337 28.5193 28.6337 25.9693V16.3544C28.6337 13.8043 29.6467 11.3587 31.4498 9.55561C33.2529 7.75247 35.6985 6.73947 38.2486 6.73947C40.7986 6.73947 43.2442 7.75247 45.0473 9.55561C46.8505 11.3587 47.8634 13.8043 47.8634 16.3544V16.3544Z" stroke="white" stroke-width="3.29653" stroke-linecap="round" stroke-linejoin="round"/>
<path d="M49.3745 35.554C49.3745 35.554 44.1063 40.9109 38.2487 40.9109M27.5349 35.554C27.5349 35.554 32.3911 40.9109 38.2487 40.9109M38.2487 40.9109V51.0065" stroke="white" stroke-width="3.29653" stroke-linecap="round" stroke-linejoin="round"/>
<path d="M94.3806 36.7865V39.0809H80.9834V20.6203H94.0113V22.9147H83.6207V28.5847H92.8773V30.8263H83.6207V36.7865H94.3806ZM111.287 19.5126V39.0809H108.861V36.8656C108.299 37.6392 107.587 38.2282 106.725 38.6325C105.864 39.0369 104.914 39.2391 103.877 39.2391C102.523 39.2391 101.31 38.9402 100.237 38.3424C99.165 37.7447 98.3211 36.9096 97.7057 35.8371C97.108 34.747 96.8091 33.4987 96.8091 32.0922C96.8091 30.6857 97.108 29.4462 97.7057 28.3737C98.3211 27.3013 99.165 26.4661 100.237 25.8684C101.31 25.2706 102.523 24.9717 103.877 24.9717C104.879 24.9717 105.802 25.1651 106.646 25.5519C107.49 25.9211 108.193 26.4749 108.756 27.2133V19.5126H111.287ZM104.088 37.0238C104.967 37.0238 105.767 36.8216 106.488 36.4173C107.209 35.9953 107.771 35.4151 108.176 34.6767C108.58 33.9207 108.782 33.0592 108.782 32.0922C108.782 31.1252 108.58 30.2725 108.176 29.5341C107.771 28.7781 107.209 28.1979 106.488 27.7935C105.767 27.3892 104.967 27.187 104.088 27.187C103.191 27.187 102.382 27.3892 101.662 27.7935C100.958 28.1979 100.396 28.7781 99.9737 29.5341C99.5694 30.2725 99.3672 31.1252 99.3672 32.0922C99.3672 33.0592 99.5694 33.9207 99.9737 34.6767C100.396 35.4151 100.958 35.9953 101.662 36.4173C102.382 36.8216 103.191 37.0238 104.088 37.0238ZM129.106 25.1036V39.0809H126.706V36.9711C126.196 37.6919 125.519 38.2545 124.675 38.6589C123.849 39.0457 122.943 39.2391 121.959 39.2391C120.095 39.2391 118.627 38.7292 117.555 37.7095C116.482 36.6722 115.946 35.1514 115.946 33.1471V25.1036H118.478V32.857C118.478 34.2108 118.803 35.2393 119.453 35.9426C120.104 36.6283 121.036 36.9711 122.249 36.9711C123.585 36.9711 124.64 36.5667 125.414 35.758C126.187 34.9492 126.574 33.8064 126.574 32.3296V25.1036H129.106ZM142.549 39.2918C140.703 39.2918 139.033 38.8875 137.538 38.0787C136.062 37.2524 134.901 36.1272 134.057 34.7031C133.213 33.2614 132.791 31.6439 132.791 29.8506C132.791 28.0573 133.213 26.4486 134.057 25.0244C134.901 23.5828 136.07 22.4575 137.565 21.6488C139.059 20.8225 140.729 20.4093 142.575 20.4093C144.017 20.4093 145.336 20.6554 146.531 21.1477C147.727 21.6224 148.747 22.3345 149.59 23.2839L147.876 24.9453C146.487 23.4861 144.756 22.7564 142.681 22.7564C141.31 22.7564 140.07 23.0641 138.962 23.6795C137.855 24.2948 136.985 25.1475 136.352 26.2376C135.736 27.31 135.429 28.5144 135.429 29.8506C135.429 31.1868 135.736 32.3999 136.352 33.4899C136.985 34.5624 137.855 35.4063 138.962 36.0217C140.07 36.637 141.31 36.9447 142.681 36.9447C144.738 36.9447 146.47 36.2063 147.876 34.7294L149.59 36.3909C148.747 37.3403 147.718 38.0611 146.505 38.5534C145.309 39.0457 143.991 39.2918 142.549 39.2918ZM157.893 24.9717C159.827 24.9717 161.304 25.4464 162.324 26.3958C163.361 27.3452 163.88 28.7605 163.88 30.6417V39.0809H161.48V37.2348C161.058 37.8853 160.451 38.3864 159.66 38.738C158.886 39.0721 157.963 39.2391 156.891 39.2391C155.326 39.2391 154.069 38.8611 153.12 38.1051C152.188 37.3491 151.722 36.3557 151.722 35.125C151.722 33.8943 152.17 32.9098 153.067 32.1713C153.964 31.4153 155.388 31.0373 157.339 31.0373H161.348V30.5363C161.348 29.4462 161.031 28.6111 160.398 28.0309C159.765 27.4507 158.834 27.1606 157.603 27.1606C156.777 27.1606 155.968 27.3013 155.177 27.5826C154.386 27.8463 153.717 28.2067 153.172 28.6638L152.117 26.765C152.838 26.1848 153.7 25.7453 154.702 25.4464C155.704 25.1299 156.768 24.9717 157.893 24.9717ZM157.313 37.2876C158.28 37.2876 159.115 37.0766 159.818 36.6546C160.521 36.2151 161.031 35.5997 161.348 34.8086V32.857H157.445C155.3 32.857 154.227 33.5779 154.227 35.0195C154.227 35.7228 154.5 36.2766 155.045 36.681C155.59 37.0854 156.346 37.2876 157.313 37.2876ZM172.573 39.2391C171.431 39.2391 170.332 39.0897 169.277 38.7908C168.222 38.4743 167.396 38.0787 166.798 37.604L167.853 35.5997C168.468 36.0393 169.215 36.3909 170.094 36.6546C170.973 36.9183 171.861 37.0502 172.758 37.0502C174.973 37.0502 176.081 36.4173 176.081 35.1514C176.081 34.7294 175.931 34.3954 175.633 34.1493C175.334 33.9031 174.956 33.7273 174.498 33.6218C174.059 33.4987 173.426 33.3669 172.6 33.2262C171.474 33.0504 170.551 32.8482 169.831 32.6197C169.127 32.3911 168.521 32.0043 168.011 31.4593C167.501 30.9143 167.246 30.1495 167.246 29.1649C167.246 27.899 167.774 26.8881 168.828 26.1321C169.883 25.3585 171.299 24.9717 173.074 24.9717C174.006 24.9717 174.938 25.086 175.87 25.3145C176.802 25.5431 177.566 25.8508 178.164 26.2376L177.083 28.2419C175.94 27.5034 174.595 27.1342 173.048 27.1342C171.976 27.1342 171.158 27.31 170.595 27.6617C170.033 28.0133 169.751 28.4792 169.751 29.0594C169.751 29.5165 169.91 29.8769 170.226 30.1407C170.543 30.4044 170.929 30.5978 171.387 30.7209C171.861 30.8439 172.521 30.9846 173.364 31.1428C174.49 31.3362 175.395 31.5472 176.081 31.7758C176.784 31.9867 177.382 32.3559 177.874 32.8834C178.366 33.4108 178.613 34.1493 178.613 35.0987C178.613 36.3645 178.068 37.3755 176.977 38.1315C175.905 38.8699 174.437 39.2391 172.573 39.2391ZM189.636 38.2633C189.266 38.5798 188.809 38.8259 188.264 39.0018C187.719 39.16 187.157 39.2391 186.576 39.2391C185.17 39.2391 184.08 38.8611 183.306 38.1051C182.533 37.3491 182.146 36.2678 182.146 34.8613V27.187H179.772V25.1036H182.146V22.0444H184.678V25.1036H188.686V27.187H184.678V34.7558C184.678 35.5118 184.862 36.092 185.231 36.4964C185.618 36.9008 186.163 37.103 186.866 37.103C187.64 37.103 188.299 36.8832 188.844 36.4436L189.636 38.2633Z" fill="white"/>
</svg>
