<svg width="356" height="452" viewBox="0 0 356 452" fill="none" xmlns="http://www.w3.org/2000/svg">
<path d="M231.056 35.3082C227.244 36.1255 223.845 38.265 221.458 41.348C219.072 44.431 217.853 48.2588 218.018 52.1539V382.462C217.631 384.825 217.762 387.244 218.403 389.551C219.044 391.859 220.179 393.999 221.729 395.824C223.28 397.649 225.208 399.116 227.382 400.121C229.555 401.127 231.921 401.647 234.316 401.647C236.711 401.647 239.077 401.127 241.25 400.121C243.424 399.116 245.353 397.649 246.903 395.824C248.453 393.999 249.588 391.859 250.229 389.551C250.87 387.244 251.001 384.825 250.614 382.462V52.1539C250.669 49.8321 250.234 47.5248 249.337 45.3826C248.44 43.2404 247.101 41.3114 245.408 39.7217C243.715 38.132 241.706 36.9172 239.511 36.1567C237.317 35.3962 234.987 35.1071 232.673 35.3082C232.135 35.2818 231.595 35.2818 231.056 35.3082ZM22.4411 52.6928C18.6291 53.5101 15.2291 55.6496 12.8429 58.7326C10.4567 61.8156 9.23803 65.6434 9.40263 69.5385V365.077C9.01543 367.44 9.1468 369.859 9.78762 372.167C10.4285 374.474 11.5634 376.615 13.1138 378.44C14.6642 380.265 16.593 381.731 18.7664 382.736C20.9399 383.742 23.306 384.263 25.7007 384.263C28.0954 384.263 30.4615 383.742 32.635 382.736C34.8084 381.731 36.7372 380.265 38.2876 378.44C39.838 376.615 40.9729 374.474 41.6138 372.167C42.2546 369.859 42.386 367.44 41.9988 365.077V69.5385C42.054 67.2167 41.6188 64.9094 40.7218 62.7672C39.8248 60.625 38.486 58.696 36.7929 57.1063C35.0998 55.5166 33.0905 54.3018 30.8961 53.5413C28.7017 52.7808 26.3716 52.4917 24.0579 52.6928C23.5193 52.6664 22.9797 52.6664 22.4411 52.6928ZM178.903 104.847C175.091 105.664 171.691 107.803 169.304 110.886C166.918 113.969 165.7 117.797 165.864 121.692V312.923C165.469 315.29 165.593 317.714 166.23 320.027C166.866 322.34 167.999 324.487 169.549 326.318C171.1 328.149 173.031 329.62 175.207 330.63C177.384 331.639 179.754 332.161 182.154 332.161C184.553 332.161 186.923 331.639 189.1 330.63C191.277 329.62 193.207 328.149 194.758 326.318C196.308 324.487 197.441 322.34 198.077 320.027C198.714 317.714 198.838 315.29 198.443 312.923V121.692C198.498 119.374 198.063 117.07 197.168 114.93C196.273 112.79 194.938 110.863 193.249 109.274C191.559 107.685 189.554 106.469 187.364 105.707C185.174 104.944 182.848 104.651 180.537 104.847C179.987 104.819 179.435 104.819 178.885 104.847H178.903ZM-29.7128 122.231C-33.5247 123.049 -36.9247 125.188 -39.3109 128.271C-41.6972 131.354 -42.9158 135.182 -42.7512 139.077V295.539C-43.1468 297.905 -43.022 300.329 -42.3856 302.642C-41.7491 304.956 -40.6163 307.102 -39.0659 308.934C-37.5156 310.765 -35.5849 312.236 -33.4082 313.245C-31.2315 314.254 -28.8611 314.777 -26.4618 314.777C-24.0626 314.777 -21.6922 314.254 -19.5155 313.245C-17.3388 312.236 -15.4081 310.765 -13.8577 308.934C-12.3074 307.102 -11.1746 304.956 -10.5381 302.642C-9.90168 300.329 -9.7769 297.905 -10.1725 295.539V139.077C-10.1178 136.758 -10.552 134.454 -11.447 132.315C-12.342 130.175 -13.6775 128.248 -15.3667 126.659C-17.056 125.07 -19.0609 123.854 -21.2511 123.091C-23.4413 122.328 -25.7677 122.035 -28.0786 122.231C-28.6288 122.204 -29.18 122.204 -29.7301 122.231H-29.7128ZM74.5949 139.616C70.7829 140.433 67.383 142.573 64.9968 145.656C62.6105 148.739 61.3919 152.566 61.5565 156.462V278.154C61.1609 280.52 61.2857 282.945 61.9221 285.258C62.5586 287.571 63.6914 289.718 65.2417 291.549C66.7921 293.38 68.7228 294.851 70.8995 295.86C73.0762 296.869 75.4466 297.392 77.8459 297.392C80.2451 297.392 82.6155 296.869 84.7922 295.86C86.9689 294.851 88.8996 293.38 90.45 291.549C92.0003 289.718 93.1331 287.571 93.7696 285.258C94.406 282.945 94.5308 280.52 94.1352 278.154V156.462C94.1899 154.143 93.7556 151.839 92.8607 149.699C91.9657 147.56 90.6302 145.633 88.941 144.043C87.2517 142.454 85.2467 141.239 83.0565 140.476C80.8663 139.713 78.54 139.42 76.2291 139.616C75.6789 139.588 75.1277 139.588 74.5775 139.616H74.5949ZM283.21 139.616C279.398 140.433 275.998 142.573 273.612 145.656C271.226 148.739 270.007 152.566 270.172 156.462V278.154C269.785 280.517 269.916 282.936 270.557 285.244C271.198 287.551 272.333 289.692 273.883 291.517C275.433 293.342 277.362 294.808 279.536 295.813C281.709 296.819 284.075 297.34 286.47 297.34C288.865 297.34 291.231 296.819 293.404 295.813C295.578 294.808 297.506 293.342 299.057 291.517C300.607 289.692 301.742 287.551 302.383 285.244C303.024 282.936 303.155 280.517 302.768 278.154V156.462C302.823 154.14 302.388 151.833 301.491 149.69C300.594 147.548 299.255 145.619 297.562 144.029C295.869 142.44 293.86 141.225 291.665 140.464C289.471 139.704 287.141 139.415 284.827 139.616C284.288 139.59 283.749 139.59 283.21 139.616ZM-81.8666 174.385C-85.6786 175.202 -89.0785 177.342 -91.4648 180.425C-93.851 183.508 -95.0697 187.336 -94.9051 191.231V243.385C-95.2923 245.748 -95.1609 248.167 -94.5201 250.475C-93.8792 252.782 -92.7443 254.922 -91.1939 256.747C-89.6435 258.573 -87.7147 260.039 -85.5413 261.044C-83.3678 262.05 -81.0017 262.57 -78.607 262.57C-76.2122 262.57 -73.8462 262.05 -71.6727 261.044C-69.4993 260.039 -67.5705 258.573 -66.0201 256.747C-64.4697 254.922 -63.3347 252.782 -62.6939 250.475C-62.0531 248.167 -61.9217 245.748 -62.3089 243.385V191.231C-62.2537 188.909 -62.6889 186.602 -63.5859 184.46C-64.4829 182.317 -65.8217 180.388 -67.5148 178.799C-69.2079 177.209 -71.2172 175.994 -73.4116 175.234C-75.606 174.473 -77.9361 174.184 -80.2498 174.385C-80.7942 174.358 -81.3396 174.358 -81.884 174.385H-81.8666ZM126.749 174.385C122.937 175.202 119.537 177.342 117.151 180.425C114.764 183.508 113.546 187.336 113.71 191.231V243.385C113.315 245.751 113.44 248.175 114.076 250.489C114.712 252.802 115.845 254.949 117.396 256.78C118.946 258.611 120.877 260.082 123.053 261.091C125.23 262.1 127.6 262.623 130 262.623C132.399 262.623 134.769 262.1 136.946 261.091C139.123 260.082 141.053 258.611 142.604 256.78C144.154 254.949 145.287 252.802 145.923 250.489C146.56 248.175 146.685 245.751 146.289 243.385V191.231C146.344 188.912 145.909 186.608 145.015 184.469C144.12 182.329 142.784 180.402 141.095 178.813C139.406 177.223 137.401 176.008 135.21 175.245C133.02 174.482 130.694 174.189 128.383 174.385C127.833 174.358 127.282 174.358 126.731 174.385H126.749ZM335.364 174.385C331.552 175.202 328.152 177.342 325.766 180.425C323.38 183.508 322.161 187.336 322.326 191.231V243.385C321.938 245.748 322.07 248.167 322.711 250.475C323.352 252.782 324.486 254.922 326.037 256.747C327.587 258.573 329.516 260.039 331.689 261.044C333.863 262.05 336.229 262.57 338.624 262.57C341.018 262.57 343.385 262.05 345.558 261.044C347.731 260.039 349.66 258.573 351.211 256.747C352.761 254.922 353.896 252.782 354.537 250.475C355.178 248.167 355.309 245.748 354.922 243.385V191.231C354.977 188.909 354.542 186.602 353.645 184.46C352.748 182.317 351.409 180.388 349.716 178.799C348.023 177.209 346.014 175.994 343.819 175.234C341.625 174.473 339.295 174.184 336.981 174.385C336.442 174.359 335.903 174.359 335.364 174.385Z" fill="#700B97" fill-opacity="0.15"/>
</svg>
