<svg width="357" height="330" viewBox="0 0 357 330" fill="none" xmlns="http://www.w3.org/2000/svg">
<g clip-path="url(#clip0_90_6)">
<path d="M232.056 35.3081C228.244 36.1254 224.845 38.2649 222.458 41.3479C220.072 44.4309 218.853 48.2587 219.018 52.1538V382.462C218.631 384.825 218.762 387.244 219.403 389.551C220.044 391.859 221.179 393.999 222.729 395.824C224.28 397.649 226.208 399.115 228.382 400.121C230.555 401.126 232.921 401.647 235.316 401.647C237.711 401.647 240.077 401.126 242.25 400.121C244.424 399.115 246.353 397.649 247.903 395.824C249.453 393.999 250.588 391.859 251.229 389.551C251.87 387.244 252.001 384.825 251.614 382.462V52.1538C251.669 49.832 251.234 47.5247 250.337 45.3825C249.44 43.2403 248.101 41.3114 246.408 39.7216C244.715 38.1319 242.706 36.9171 240.511 36.1566C238.317 35.3961 235.987 35.107 233.673 35.3081C233.135 35.2817 232.595 35.2817 232.056 35.3081ZM23.4411 52.6928C19.6291 53.51 16.2292 55.6495 13.8429 58.7325C11.4567 61.8155 10.238 65.6433 10.4026 69.5384V365.077C10.0154 367.44 10.1468 369.859 10.7876 372.167C11.4284 374.474 12.5634 376.615 14.1138 378.44C15.6642 380.265 17.593 381.731 19.7664 382.736C21.9399 383.742 24.306 384.263 26.7007 384.263C29.0954 384.263 31.4615 383.742 33.635 382.736C35.8084 381.731 37.7372 380.265 39.2876 378.44C40.838 376.615 41.9729 374.474 42.6138 372.167C43.2546 369.859 43.386 367.44 42.9988 365.077V69.5384C43.054 67.2167 42.6188 64.9093 41.7218 62.7671C40.8248 60.6249 39.486 58.696 37.7929 57.1062C36.0998 55.5165 34.0905 54.3018 31.8961 53.5413C29.7017 52.7808 27.3716 52.4916 25.0579 52.6928C24.5193 52.6664 23.9797 52.6664 23.4411 52.6928ZM179.903 104.847C176.091 105.664 172.691 107.803 170.304 110.886C167.918 113.969 166.7 117.797 166.864 121.692V312.923C166.469 315.289 166.593 317.714 167.23 320.027C167.866 322.34 168.999 324.487 170.549 326.318C172.1 328.149 174.03 329.62 176.207 330.629C178.384 331.639 180.754 332.161 183.154 332.161C185.553 332.161 187.923 331.639 190.1 330.629C192.277 329.62 194.207 328.149 195.758 326.318C197.308 324.487 198.441 322.34 199.077 320.027C199.714 317.714 199.838 315.289 199.443 312.923V121.692C199.498 119.374 199.063 117.07 198.168 114.93C197.273 112.79 195.938 110.863 194.249 109.274C192.559 107.685 190.554 106.469 188.364 105.706C186.174 104.944 183.848 104.651 181.537 104.847C180.987 104.819 180.435 104.819 179.885 104.847H179.903ZM-28.7128 122.231C-32.5247 123.049 -35.9247 125.188 -38.3109 128.271C-40.6972 131.354 -41.9158 135.182 -41.7512 139.077V295.538C-42.1468 297.905 -42.022 300.329 -41.3856 302.642C-40.7491 304.956 -39.6163 307.102 -38.0659 308.933C-36.5156 310.765 -34.5849 312.236 -32.4082 313.245C-30.2315 314.254 -27.8611 314.777 -25.4618 314.777C-23.0626 314.777 -20.6922 314.254 -18.5155 313.245C-16.3388 312.236 -14.4081 310.765 -12.8577 308.933C-11.3074 307.102 -10.1746 304.956 -9.53812 302.642C-8.90169 300.329 -8.7769 297.905 -9.17245 295.538V139.077C-9.11778 136.758 -9.55205 134.454 -10.447 132.315C-11.342 130.175 -12.6775 128.248 -14.3667 126.659C-16.0559 125.069 -18.0609 123.854 -20.2511 123.091C-22.4413 122.328 -24.7677 122.035 -27.0786 122.231C-27.6288 122.204 -28.18 122.204 -28.7301 122.231H-28.7128ZM75.5949 139.616C71.7829 140.433 68.383 142.573 65.9968 145.656C63.6105 148.739 62.3919 152.566 62.5565 156.462V278.154C62.1609 280.52 62.2857 282.944 62.9221 285.258C63.5586 287.571 64.6914 289.718 66.2417 291.549C67.7921 293.38 69.7228 294.851 71.8995 295.86C74.0762 296.869 76.4466 297.392 78.8459 297.392C81.2451 297.392 83.6155 296.869 85.7922 295.86C87.9689 294.851 89.8996 293.38 91.45 291.549C93.0003 289.718 94.1331 287.571 94.7696 285.258C95.406 282.944 95.5308 280.52 95.1352 278.154V156.462C95.1899 154.143 94.7556 151.839 93.8607 149.699C92.9657 147.56 91.6302 145.632 89.941 144.043C88.2518 142.454 86.2468 141.239 84.0565 140.476C81.8663 139.713 79.54 139.42 77.2291 139.616C76.6789 139.588 76.1277 139.588 75.5775 139.616H75.5949ZM284.21 139.616C280.398 140.433 276.998 142.573 274.612 145.656C272.226 148.739 271.007 152.566 271.172 156.462V278.154C270.785 280.517 270.916 282.936 271.557 285.244C272.198 287.551 273.333 289.691 274.883 291.517C276.433 293.342 278.362 294.808 280.536 295.813C282.709 296.819 285.075 297.34 287.47 297.34C289.865 297.34 292.231 296.819 294.404 295.813C296.578 294.808 298.506 293.342 300.057 291.517C301.607 289.691 302.742 287.551 303.383 285.244C304.024 282.936 304.155 280.517 303.768 278.154V156.462C303.823 154.14 303.388 151.832 302.491 149.69C301.594 147.548 300.255 145.619 298.562 144.029C296.869 142.44 294.86 141.225 292.665 140.464C290.471 139.704 288.141 139.415 285.827 139.616C285.288 139.589 284.749 139.589 284.21 139.616ZM-80.8666 174.385C-84.6786 175.202 -88.0785 177.342 -90.4648 180.425C-92.851 183.508 -94.0697 187.336 -93.9051 191.231V243.385C-94.2923 245.748 -94.1609 248.167 -93.5201 250.474C-92.8792 252.782 -91.7443 254.922 -90.1939 256.747C-88.6435 258.572 -86.7147 260.039 -84.5413 261.044C-82.3678 262.05 -80.0017 262.57 -77.607 262.57C-75.2122 262.57 -72.8462 262.05 -70.6727 261.044C-68.4993 260.039 -66.5705 258.572 -65.0201 256.747C-63.4697 254.922 -62.3347 252.782 -61.6939 250.474C-61.0531 248.167 -60.9217 245.748 -61.3089 243.385V191.231C-61.2537 188.909 -61.6889 186.602 -62.5859 184.459C-63.4829 182.317 -64.8217 180.388 -66.5148 178.799C-68.2079 177.209 -70.2172 175.994 -72.4116 175.234C-74.606 174.473 -76.9361 174.184 -79.2498 174.385C-79.7942 174.358 -80.3396 174.358 -80.884 174.385H-80.8666ZM127.749 174.385C123.937 175.202 120.537 177.342 118.151 180.425C115.764 183.508 114.546 187.336 114.71 191.231V243.385C114.315 245.751 114.44 248.175 115.076 250.488C115.712 252.802 116.845 254.949 118.396 256.78C119.946 258.611 121.877 260.082 124.053 261.091C126.23 262.1 128.6 262.623 131 262.623C133.399 262.623 135.769 262.1 137.946 261.091C140.123 260.082 142.053 258.611 143.604 256.78C145.154 254.949 146.287 252.802 146.923 250.488C147.56 248.175 147.685 245.751 147.289 243.385V191.231C147.344 188.912 146.909 186.608 146.015 184.468C145.12 182.329 143.784 180.402 142.095 178.813C140.406 177.223 138.401 176.008 136.21 175.245C134.02 174.482 131.694 174.189 129.383 174.385C128.833 174.358 128.282 174.358 127.731 174.385H127.749ZM336.364 174.385C332.552 175.202 329.152 177.342 326.766 180.425C324.38 183.508 323.161 187.336 323.326 191.231V243.385C322.938 245.748 323.07 248.167 323.711 250.474C324.351 252.782 325.486 254.922 327.037 256.747C328.587 258.572 330.516 260.039 332.689 261.044C334.863 262.05 337.229 262.57 339.624 262.57C342.018 262.57 344.385 262.05 346.558 261.044C348.731 260.039 350.66 258.572 352.211 256.747C353.761 254.922 354.896 252.782 355.537 250.474C356.178 248.167 356.309 245.748 355.922 243.385V191.231C355.977 188.909 355.542 186.602 354.645 184.459C353.748 182.317 352.409 180.388 350.716 178.799C349.023 177.209 347.014 175.994 344.819 175.234C342.625 174.473 340.295 174.184 337.981 174.385C337.442 174.359 336.903 174.359 336.364 174.385Z" fill="#EAD2F3" fill-opacity="0.2"/>
</g>
<defs>
<clipPath id="clip0_90_6">
<rect width="452" height="330" fill="white" transform="translate(-95)"/>
</clipPath>
</defs>
</svg>
